<svg id="visual" viewBox="0 0 450 900" width="450" height="900" xmlns="http://www.w3.org/2000/svg" xmlns:xlink="http://www.w3.org/1999/xlink" version="1.1"><path d="M0 46L10.7 52C21.3 58 42.7 70 64.2 74.5C85.7 79 107.3 76 128.8 76C150.3 76 171.7 79 193 79C214.3 79 235.7 76 257 70C278.3 64 299.7 55 321.2 50.5C342.7 46 364.3 46 385.8 46C407.3 46 428.7 46 439.3 46L450 46L450 0L439.3 0C428.7 0 407.3 0 385.8 0C364.3 0 342.7 0 321.2 0C299.7 0 278.3 0 257 0C235.7 0 214.3 0 193 0C171.7 0 150.3 0 128.8 0C107.3 0 85.7 0 64.2 0C42.7 0 21.3 0 10.7 0L0 0Z" fill="#530000"></path><path d="M0 118L10.7 125.5C21.3 133 42.7 148 64.2 155.5C85.7 163 107.3 163 128.8 161.5C150.3 160 171.7 157 193 155.5C214.3 154 235.7 154 257 146.5C278.3 139 299.7 124 321.2 121C342.7 118 364.3 127 385.8 131.5C407.3 136 428.7 136 439.3 136L450 136L450 44L439.3 44C428.7 44 407.3 44 385.8 44C364.3 44 342.7 44 321.2 48.5C299.7 53 278.3 62 257 68C235.7 74 214.3 77 193 77C171.7 77 150.3 74 128.8 74C107.3 74 85.7 77 64.2 72.5C42.7 68 21.3 56 10.7 50L0 44Z" fill="#5e0509"></path><path d="M0 154L10.7 163C21.3 172 42.7 190 64.2 200.5C85.7 211 107.3 214 128.8 211C150.3 208 171.7 199 193 194.5C214.3 190 235.7 190 257 184C278.3 178 299.7 166 321.2 163C342.7 160 364.3 166 385.8 172C407.3 178 428.7 184 439.3 187L450 190L450 134L439.3 134C428.7 134 407.3 134 385.8 129.5C364.3 125 342.7 116 321.2 119C299.7 122 278.3 137 257 144.5C235.7 152 214.3 152 193 153.5C171.7 155 150.3 158 128.8 159.5C107.3 161 85.7 161 64.2 153.5C42.7 146 21.3 131 10.7 123.5L0 116Z" fill="#690c10"></path><path d="M0 190L10.7 205C21.3 220 42.7 250 64.2 262C85.7 274 107.3 268 128.8 262C150.3 256 171.7 250 193 245.5C214.3 241 235.7 238 257 235C278.3 232 299.7 229 321.2 227.5C342.7 226 364.3 226 385.8 226C407.3 226 428.7 226 439.3 226L450 226L450 188L439.3 185C428.7 182 407.3 176 385.8 170C364.3 164 342.7 158 321.2 161C299.7 164 278.3 176 257 182C235.7 188 214.3 188 193 192.5C171.7 197 150.3 206 128.8 209C107.3 212 85.7 209 64.2 198.5C42.7 188 21.3 170 10.7 161L0 152Z" fill="#741316"></path><path d="M0 253L10.7 265C21.3 277 42.7 301 64.2 313C85.7 325 107.3 325 128.8 319C150.3 313 171.7 301 193 296.5C214.3 292 235.7 295 257 295C278.3 295 299.7 292 321.2 289C342.7 286 364.3 283 385.8 283C407.3 283 428.7 286 439.3 287.5L450 289L450 224L439.3 224C428.7 224 407.3 224 385.8 224C364.3 224 342.7 224 321.2 225.5C299.7 227 278.3 230 257 233C235.7 236 214.3 239 193 243.5C171.7 248 150.3 254 128.8 260C107.3 266 85.7 272 64.2 260C42.7 248 21.3 218 10.7 203L0 188Z" fill="#801a1b"></path><path d="M0 289L10.7 299.5C21.3 310 42.7 331 64.2 343C85.7 355 107.3 358 128.8 355C150.3 352 171.7 343 193 338.5C214.3 334 235.7 334 257 332.5C278.3 331 299.7 328 321.2 325C342.7 322 364.3 319 385.8 319C407.3 319 428.7 322 439.3 323.5L450 325L450 287L439.3 285.5C428.7 284 407.3 281 385.8 281C364.3 281 342.7 284 321.2 287C299.7 290 278.3 293 257 293C235.7 293 214.3 290 193 294.5C171.7 299 150.3 311 128.8 317C107.3 323 85.7 323 64.2 311C42.7 299 21.3 275 10.7 263L0 251Z" fill="#8c2021"></path><path d="M0 487L10.7 487C21.3 487 42.7 487 64.2 491.5C85.7 496 107.3 505 128.8 500.5C150.3 496 171.7 478 193 485.5C214.3 493 235.7 526 257 545.5C278.3 565 299.7 571 321.2 566.5C342.7 562 364.3 547 385.8 538C407.3 529 428.7 526 439.3 524.5L450 523L450 323L439.3 321.5C428.7 320 407.3 317 385.8 317C364.3 317 342.7 320 321.2 323C299.7 326 278.3 329 257 330.5C235.7 332 214.3 332 193 336.5C171.7 341 150.3 350 128.8 353C107.3 356 85.7 353 64.2 341C42.7 329 21.3 308 10.7 297.5L0 287Z" fill="#982627"></path><path d="M0 577L10.7 577C21.3 577 42.7 577 64.2 584.5C85.7 592 107.3 607 128.8 602.5C150.3 598 171.7 574 193 580C214.3 586 235.7 622 257 644.5C278.3 667 299.7 676 321.2 674.5C342.7 673 364.3 661 385.8 653.5C407.3 646 428.7 643 439.3 641.5L450 640L450 521L439.3 522.5C428.7 524 407.3 527 385.8 536C364.3 545 342.7 560 321.2 564.5C299.7 569 278.3 563 257 543.5C235.7 524 214.3 491 193 483.5C171.7 476 150.3 494 128.8 498.5C107.3 503 85.7 494 64.2 489.5C42.7 485 21.3 485 10.7 485L0 485Z" fill="#a42d2d"></path><path d="M0 640L10.7 644.5C21.3 649 42.7 658 64.2 665.5C85.7 673 107.3 679 128.8 676C150.3 673 171.7 661 193 671.5C214.3 682 235.7 715 257 731.5C278.3 748 299.7 748 321.2 743.5C342.7 739 364.3 730 385.8 722.5C407.3 715 428.7 709 439.3 706L450 703L450 638L439.3 639.5C428.7 641 407.3 644 385.8 651.5C364.3 659 342.7 671 321.2 672.5C299.7 674 278.3 665 257 642.5C235.7 620 214.3 584 193 578C171.7 572 150.3 596 128.8 600.5C107.3 605 85.7 590 64.2 582.5C42.7 575 21.3 575 10.7 575L0 575Z" fill="#b03333"></path><path d="M0 901L10.7 901C21.3 901 42.7 901 64.2 901C85.7 901 107.3 901 128.8 901C150.3 901 171.7 901 193 901C214.3 901 235.7 901 257 901C278.3 901 299.7 901 321.2 901C342.7 901 364.3 901 385.8 901C407.3 901 428.7 901 439.3 901L450 901L450 701L439.3 704C428.7 707 407.3 713 385.8 720.5C364.3 728 342.7 737 321.2 741.5C299.7 746 278.3 746 257 729.5C235.7 713 214.3 680 193 669.5C171.7 659 150.3 671 128.8 674C107.3 677 85.7 671 64.2 663.5C42.7 656 21.3 647 10.7 642.5L0 638Z" fill="#bd3939"></path></svg>