<svg id="visual" viewBox="0 0 450 900" width="450" height="900" xmlns="http://www.w3.org/2000/svg" xmlns:xlink="http://www.w3.org/1999/xlink" version="1.1"><path d="M0 64L10.7 61C21.3 58 42.7 52 64.2 52C85.7 52 107.3 58 128.8 58C150.3 58 171.7 52 193 50.5C214.3 49 235.7 52 257 50.5C278.3 49 299.7 43 321.2 44.5C342.7 46 364.3 55 385.8 59.5C407.3 64 428.7 64 439.3 64L450 64L450 0L439.3 0C428.7 0 407.3 0 385.8 0C364.3 0 342.7 0 321.2 0C299.7 0 278.3 0 257 0C235.7 0 214.3 0 193 0C171.7 0 150.3 0 128.8 0C107.3 0 85.7 0 64.2 0C42.7 0 21.3 0 10.7 0L0 0Z" fill="#2f0401"></path><path d="M0 100L10.7 98.5C21.3 97 42.7 94 64.2 94C85.7 94 107.3 97 128.8 98.5C150.3 100 171.7 100 193 100C214.3 100 235.7 100 257 98.5C278.3 97 299.7 94 321.2 95.5C342.7 97 364.3 103 385.8 106C407.3 109 428.7 109 439.3 109L450 109L450 62L439.3 62C428.7 62 407.3 62 385.8 57.5C364.3 53 342.7 44 321.2 42.5C299.7 41 278.3 47 257 48.5C235.7 50 214.3 47 193 48.5C171.7 50 150.3 56 128.8 56C107.3 56 85.7 50 64.2 50C42.7 50 21.3 56 10.7 59L0 62Z" fill="#320401"></path><path d="M0 235L10.7 245.5C21.3 256 42.7 277 64.2 281.5C85.7 286 107.3 274 128.8 269.5C150.3 265 171.7 268 193 271C214.3 274 235.7 277 257 277C278.3 277 299.7 274 321.2 283C342.7 292 364.3 313 385.8 319C407.3 325 428.7 316 439.3 311.5L450 307L450 107L439.3 107C428.7 107 407.3 107 385.8 104C364.3 101 342.7 95 321.2 93.5C299.7 92 278.3 95 257 96.5C235.7 98 214.3 98 193 98C171.7 98 150.3 98 128.8 96.5C107.3 95 85.7 92 64.2 92C42.7 92 21.3 95 10.7 96.5L0 98Z" fill="#350301"></path><path d="M0 325L10.7 334C21.3 343 42.7 361 64.2 365.5C85.7 370 107.3 361 128.8 353.5C150.3 346 171.7 340 193 343C214.3 346 235.7 358 257 364C278.3 370 299.7 370 321.2 383.5C342.7 397 364.3 424 385.8 424C407.3 424 428.7 397 439.3 383.5L450 370L450 305L439.3 309.5C428.7 314 407.3 323 385.8 317C364.3 311 342.7 290 321.2 281C299.7 272 278.3 275 257 275C235.7 275 214.3 272 193 269C171.7 266 150.3 263 128.8 267.5C107.3 272 85.7 284 64.2 279.5C42.7 275 21.3 254 10.7 243.5L0 233Z" fill="#380200"></path><path d="M0 388L10.7 398.5C21.3 409 42.7 430 64.2 433C85.7 436 107.3 421 128.8 413.5C150.3 406 171.7 406 193 410.5C214.3 415 235.7 424 257 425.5C278.3 427 299.7 421 321.2 430C342.7 439 364.3 463 385.8 464.5C407.3 466 428.7 445 439.3 434.5L450 424L450 368L439.3 381.5C428.7 395 407.3 422 385.8 422C364.3 422 342.7 395 321.2 381.5C299.7 368 278.3 368 257 362C235.7 356 214.3 344 193 341C171.7 338 150.3 344 128.8 351.5C107.3 359 85.7 368 64.2 363.5C42.7 359 21.3 341 10.7 332L0 323Z" fill="#3b0100"></path><path d="M0 442L10.7 451C21.3 460 42.7 478 64.2 478C85.7 478 107.3 460 128.8 449.5C150.3 439 171.7 436 193 442C214.3 448 235.7 463 257 466C278.3 469 299.7 460 321.2 469C342.7 478 364.3 505 385.8 508C407.3 511 428.7 490 439.3 479.5L450 469L450 422L439.3 432.5C428.7 443 407.3 464 385.8 462.5C364.3 461 342.7 437 321.2 428C299.7 419 278.3 425 257 423.5C235.7 422 214.3 413 193 408.5C171.7 404 150.3 404 128.8 411.5C107.3 419 85.7 434 64.2 431C42.7 428 21.3 407 10.7 396.5L0 386Z" fill="#430003"></path><path d="M0 496L10.7 506.5C21.3 517 42.7 538 64.2 541C85.7 544 107.3 529 128.8 517C150.3 505 171.7 496 193 500.5C214.3 505 235.7 523 257 527.5C278.3 532 299.7 523 321.2 530.5C342.7 538 364.3 562 385.8 562C407.3 562 428.7 538 439.3 526L450 514L450 467L439.3 477.5C428.7 488 407.3 509 385.8 506C364.3 503 342.7 476 321.2 467C299.7 458 278.3 467 257 464C235.7 461 214.3 446 193 440C171.7 434 150.3 437 128.8 447.5C107.3 458 85.7 476 64.2 476C42.7 476 21.3 458 10.7 449L0 440Z" fill="#50000a"></path><path d="M0 577L10.7 584.5C21.3 592 42.7 607 64.2 608.5C85.7 610 107.3 598 128.8 586C150.3 574 171.7 562 193 568C214.3 574 235.7 598 257 605.5C278.3 613 299.7 604 321.2 608.5C342.7 613 364.3 631 385.8 631C407.3 631 428.7 613 439.3 604L450 595L450 512L439.3 524C428.7 536 407.3 560 385.8 560C364.3 560 342.7 536 321.2 528.5C299.7 521 278.3 530 257 525.5C235.7 521 214.3 503 193 498.5C171.7 494 150.3 503 128.8 515C107.3 527 85.7 542 64.2 539C42.7 536 21.3 515 10.7 504.5L0 494Z" fill="#5d000f"></path><path d="M0 802L10.7 794.5C21.3 787 42.7 772 64.2 766C85.7 760 107.3 763 128.8 766C150.3 769 171.7 772 193 778C214.3 784 235.7 793 257 790C278.3 787 299.7 772 321.2 773.5C342.7 775 364.3 793 385.8 796C407.3 799 428.7 787 439.3 781L450 775L450 593L439.3 602C428.7 611 407.3 629 385.8 629C364.3 629 342.7 611 321.2 606.5C299.7 602 278.3 611 257 603.5C235.7 596 214.3 572 193 566C171.7 560 150.3 572 128.8 584C107.3 596 85.7 608 64.2 606.5C42.7 605 21.3 590 10.7 582.5L0 575Z" fill="#6b0012"></path><path d="M0 901L10.7 901C21.3 901 42.7 901 64.2 901C85.7 901 107.3 901 128.8 901C150.3 901 171.7 901 193 901C214.3 901 235.7 901 257 901C278.3 901 299.7 901 321.2 901C342.7 901 364.3 901 385.8 901C407.3 901 428.7 901 439.3 901L450 901L450 773L439.3 779C428.7 785 407.3 797 385.8 794C364.3 791 342.7 773 321.2 771.5C299.7 770 278.3 785 257 788C235.7 791 214.3 782 193 776C171.7 770 150.3 767 128.8 764C107.3 761 85.7 758 64.2 764C42.7 770 21.3 785 10.7 792.5L0 800Z" fill="#790115"></path></svg>