<svg id="visual" viewBox="0 0 900 600" width="900" height="600" xmlns="http://www.w3.org/2000/svg" xmlns:xlink="http://www.w3.org/1999/xlink" version="1.1"><path d="M0 157L13.7 152C27.3 147 54.7 137 82 129C109.3 121 136.7 115 163.8 125C191 135 218 161 245.2 164C272.3 167 299.7 147 327 141C354.3 135 381.7 143 409 139C436.3 135 463.7 119 491 110C518.3 101 545.7 99 573 102C600.3 105 627.7 113 654.8 118C682 123 709 125 736.2 131C763.3 137 790.7 147 818 149C845.3 151 872.7 145 886.3 142L900 139L900 0L886.3 0C872.7 0 845.3 0 818 0C790.7 0 763.3 0 736.2 0C709 0 682 0 654.8 0C627.7 0 600.3 0 573 0C545.7 0 518.3 0 491 0C463.7 0 436.3 0 409 0C381.7 0 354.3 0 327 0C299.7 0 272.3 0 245.2 0C218 0 191 0 163.8 0C136.7 0 109.3 0 82 0C54.7 0 27.3 0 13.7 0L0 0Z" fill="#8f1848"></path><path d="M0 193L13.7 187C27.3 181 54.7 169 82 160C109.3 151 136.7 145 163.8 161C191 177 218 215 245.2 222C272.3 229 299.7 205 327 199C354.3 193 381.7 205 409 204C436.3 203 463.7 189 491 179C518.3 169 545.7 163 573 160C600.3 157 627.7 157 654.8 162C682 167 709 177 736.2 187C763.3 197 790.7 207 818 205C845.3 203 872.7 189 886.3 182L900 175L900 137L886.3 140C872.7 143 845.3 149 818 147C790.7 145 763.3 135 736.2 129C709 123 682 121 654.8 116C627.7 111 600.3 103 573 100C545.7 97 518.3 99 491 108C463.7 117 436.3 133 409 137C381.7 141 354.3 133 327 139C299.7 145 272.3 165 245.2 162C218 159 191 133 163.8 123C136.7 113 109.3 119 82 127C54.7 135 27.3 145 13.7 150L0 155Z" fill="#a01a50"></path><path d="M0 277L13.7 275C27.3 273 54.7 269 82 261C109.3 253 136.7 241 163.8 257C191 273 218 317 245.2 325C272.3 333 299.7 305 327 301C354.3 297 381.7 317 409 315C436.3 313 463.7 289 491 273C518.3 257 545.7 249 573 253C600.3 257 627.7 273 654.8 285C682 297 709 305 736.2 305C763.3 305 790.7 297 818 292C845.3 287 872.7 285 886.3 284L900 283L900 173L886.3 180C872.7 187 845.3 201 818 203C790.7 205 763.3 195 736.2 185C709 175 682 165 654.8 160C627.7 155 600.3 155 573 158C545.7 161 518.3 167 491 177C463.7 187 436.3 201 409 202C381.7 203 354.3 191 327 197C299.7 203 272.3 227 245.2 220C218 213 191 175 163.8 159C136.7 143 109.3 149 82 158C54.7 167 27.3 179 13.7 185L0 191Z" fill="#b21d59"></path><path d="M0 439L13.7 433C27.3 427 54.7 415 82 408C109.3 401 136.7 399 163.8 408C191 417 218 437 245.2 444C272.3 451 299.7 445 327 442C354.3 439 381.7 439 409 441C436.3 443 463.7 447 491 442C518.3 437 545.7 423 573 425C600.3 427 627.7 445 654.8 455C682 465 709 467 736.2 463C763.3 459 790.7 449 818 441C845.3 433 872.7 427 886.3 424L900 421L900 281L886.3 282C872.7 283 845.3 285 818 290C790.7 295 763.3 303 736.2 303C709 303 682 295 654.8 283C627.7 271 600.3 255 573 251C545.7 247 518.3 255 491 271C463.7 287 436.3 311 409 313C381.7 315 354.3 295 327 299C299.7 303 272.3 331 245.2 323C218 315 191 271 163.8 255C136.7 239 109.3 251 82 259C54.7 267 27.3 271 13.7 273L0 275Z" fill="#c41f61"></path><path d="M0 481L13.7 481C27.3 481 54.7 481 82 480C109.3 479 136.7 477 163.8 479C191 481 218 487 245.2 494C272.3 501 299.7 509 327 507C354.3 505 381.7 493 409 493C436.3 493 463.7 505 491 506C518.3 507 545.7 497 573 499C600.3 501 627.7 515 654.8 518C682 521 709 513 736.2 509C763.3 505 790.7 505 818 499C845.3 493 872.7 481 886.3 475L900 469L900 419L886.3 422C872.7 425 845.3 431 818 439C790.7 447 763.3 457 736.2 461C709 465 682 463 654.8 453C627.7 443 600.3 425 573 423C545.7 421 518.3 435 491 440C463.7 445 436.3 441 409 439C381.7 437 354.3 437 327 440C299.7 443 272.3 449 245.2 442C218 435 191 415 163.8 406C136.7 397 109.3 399 82 406C54.7 413 27.3 425 13.7 431L0 437Z" fill="#cc3c70"></path><path d="M0 541L13.7 539C27.3 537 54.7 533 82 530C109.3 527 136.7 525 163.8 527C191 529 218 535 245.2 540C272.3 545 299.7 549 327 548C354.3 547 381.7 541 409 541C436.3 541 463.7 547 491 547C518.3 547 545.7 541 573 542C600.3 543 627.7 551 654.8 555C682 559 709 559 736.2 556C763.3 553 790.7 547 818 541C845.3 535 872.7 529 886.3 526L900 523L900 467L886.3 473C872.7 479 845.3 491 818 497C790.7 503 763.3 503 736.2 507C709 511 682 519 654.8 516C627.7 513 600.3 499 573 497C545.7 495 518.3 505 491 504C463.7 503 436.3 491 409 491C381.7 491 354.3 503 327 505C299.7 507 272.3 499 245.2 492C218 485 191 479 163.8 477C136.7 475 109.3 477 82 478C54.7 479 27.3 479 13.7 479L0 479Z" fill="#d2527e"></path><path d="M0 601L13.7 601C27.3 601 54.7 601 82 601C109.3 601 136.7 601 163.8 601C191 601 218 601 245.2 601C272.3 601 299.7 601 327 601C354.3 601 381.7 601 409 601C436.3 601 463.7 601 491 601C518.3 601 545.7 601 573 601C600.3 601 627.7 601 654.8 601C682 601 709 601 736.2 601C763.3 601 790.7 601 818 601C845.3 601 872.7 601 886.3 601L900 601L900 521L886.3 524C872.7 527 845.3 533 818 539C790.7 545 763.3 551 736.2 554C709 557 682 557 654.8 553C627.7 549 600.3 541 573 540C545.7 539 518.3 545 491 545C463.7 545 436.3 539 409 539C381.7 539 354.3 545 327 546C299.7 547 272.3 543 245.2 538C218 533 191 527 163.8 525C136.7 523 109.3 525 82 528C54.7 531 27.3 535 13.7 537L0 539Z" fill="#d9668d"></path></svg>