<svg id="visual" viewBox="0 0 900 600" width="200" height="200" xmlns="http://www.w3.org/2000/svg" xmlns:xlink="http://www.w3.org/1999/xlink" version="1.1"><g transform="translate(458.95077890470134 291.5722800787165)"><path d="M129.8 -227.8C162.3 -206.1 178.6 -159.3 200.4 -117.1C222.2 -75 249.6 -37.5 258.9 5.3C268.1 48.2 259.2 96.3 231.8 128.8C204.4 161.3 158.4 178.1 116.7 199.3C75 220.6 37.5 246.3 -5.7 256.2C-49 266.2 -98 260.4 -139.9 239.2C-181.7 218.1 -216.4 181.5 -241.9 139.1C-267.4 96.7 -283.7 48.3 -279.7 2.3C-275.6 -43.7 -251.3 -87.3 -220 -119.8C-188.8 -152.3 -150.6 -173.6 -112.8 -192.2C-75 -210.9 -37.5 -227 5.6 -236.6C48.7 -246.3 97.3 -249.6 129.8 -227.8" fill="none" stroke="#ff00ff" stroke-width="40"></path></g></svg>